<svg xmlns="http://www.w3.org/2000/svg" xmlns:xlink="http://www.w3.org/1999/xlink" width="150" zoomAndPan="magnify" viewBox="0 0 112.5 56.249996" height="75" preserveAspectRatio="xMidYMid meet" version="1.0"><defs><g/><clipPath id="015bb0a71a"><path d="M 0.492188 0 L 111.511719 0 L 111.511719 55.511719 L 0.492188 55.511719 Z M 0.492188 0 " clip-rule="nonzero"/></clipPath><clipPath id="5dab831d04"><path d="M 1.773438 15.871094 L 39.6875 15.871094 L 39.6875 41.148438 L 1.773438 41.148438 Z M 1.773438 15.871094 " clip-rule="nonzero"/></clipPath></defs><g clip-path="url(#015bb0a71a)"><path fill="#ffffff" d="M 0.492188 0 L 112.007812 0 L 112.007812 62.449219 L 0.492188 62.449219 Z M 0.492188 0 " fill-opacity="1" fill-rule="nonzero"/><path fill="#ffffff" d="M 0.492188 0 L 112.007812 0 L 112.007812 55.757812 L 0.492188 55.757812 Z M 0.492188 0 " fill-opacity="1" fill-rule="nonzero"/><path fill="#cf5425" d="M 0.492188 0 L 112.007812 0 L 112.007812 55.757812 L 0.492188 55.757812 Z M 0.492188 0 " fill-opacity="1" fill-rule="nonzero"/></g><g clip-path="url(#5dab831d04)"><path fill="#3c2d26" d="M 39.597656 28.445312 C 40.078125 31.535156 38.8125 34.15625 36.671875 36.472656 C 32.171875 38.707031 25.183594 41.066406 19.722656 41.066406 L 19.722656 41.023438 C 18.457031 41.195312 17.277344 40.808594 16.230469 40.121094 C 10.421875 36.386719 8.671875 28.230469 7.011719 23.9375 L 4.828125 24.710938 C 4.261719 24.96875 3.648438 24.882812 3.082031 24.539062 C 1.421875 23.378906 0.941406 19.6875 4.042969 18.398438 C 6.664062 17.496094 15.398438 14.75 19.417969 16.550781 C 24.355469 18.785156 26.058594 30.375 32.261719 31.964844 Z M 38.59375 30.164062 L 25.316406 36.472656 C 25.007812 36.988281 24.003906 38.621094 22.519531 39.777344 C 28.808594 39.007812 35.144531 36 35.972656 35.613281 C 38.113281 33.296875 38.550781 31.234375 38.59375 30.164062 Z M 24.484375 35.613281 L 30.820312 32.609375 C 24.964844 29.949219 23.042969 19.429688 18.9375 17.539062 C 15.09375 15.824219 5.089844 19.085938 4.261719 19.472656 C 9.808594 19.730469 8.453125 33.769531 16.886719 39.179688 C 19.898438 41.195312 22.871094 38.75 24.484375 35.613281 Z M 6.007812 23.121094 L 6.621094 22.90625 C 6.359375 22.347656 6.097656 21.875 5.660156 21.402344 L 5.308594 21.574219 C 5.835938 21.960938 6.097656 22.519531 6.007812 23.121094 Z M 4.917969 23.035156 C 5.003906 22.734375 4.785156 22.519531 4.566406 22.347656 Z M 3.78125 21.1875 L 4.65625 20.675781 C 4.085938 20.503906 3.519531 20.632812 2.996094 20.929688 C 2.558594 22.433594 3.519531 24.066406 4.347656 23.722656 C 4.65625 23.464844 4.828125 23.25 4.871094 23.078125 C 3.386719 23.808594 2.558594 21.832031 3.78125 21.1875 Z M 3.78125 21.1875 " fill-opacity="1" fill-rule="nonzero"/></g><path fill="#f0efee" d="M 30.820312 32.609375 L 24.484375 35.613281 C 22.824219 38.707031 19.898438 41.195312 16.839844 39.179688 C 8.410156 33.8125 9.765625 19.773438 4.21875 19.515625 C 5.046875 19.085938 15.09375 15.824219 18.894531 17.582031 C 23.042969 19.429688 24.964844 29.949219 30.820312 32.609375 Z M 23.175781 26.039062 L 23.042969 25.695312 C 21.472656 26.210938 19.113281 27.027344 18.980469 27.070312 C 19.027344 27.285156 19.027344 27.199219 19.027344 27.414062 C 19.070312 27.414062 19.113281 27.414062 23.175781 26.039062 Z M 23.042969 25.226562 L 22.914062 24.882812 L 18.066406 26.425781 L 18.195312 26.769531 Z M 22.871094 24.539062 L 22.78125 24.195312 C 21.820312 24.453125 12.34375 27.457031 11.949219 27.628906 L 12.082031 27.972656 C 12.167969 27.929688 21.910156 24.753906 22.871094 24.539062 Z M 22.652344 23.894531 L 22.5625 23.550781 C 21.078125 23.851562 12.34375 26.597656 11.949219 26.683594 L 12.082031 27.027344 C 12.167969 26.984375 21.164062 24.195312 22.652344 23.894531 Z M 22.039062 23.292969 L 21.996094 22.90625 C 20.074219 23.121094 12.035156 25.652344 11.730469 25.738281 L 11.863281 26.082031 C 11.90625 26.082031 20.117188 23.464844 22.039062 23.292969 Z M 21.558594 22.605469 L 21.515625 22.261719 C 19.59375 22.476562 11.382812 25.011719 11.03125 25.097656 L 11.164062 25.441406 C 11.207031 25.398438 19.636719 22.777344 21.558594 22.605469 Z M 21.164062 21.703125 L 21.121094 21.359375 C 19.332031 21.53125 11.074219 23.9375 10.726562 24.066406 L 10.8125 24.410156 C 10.945312 24.324219 19.417969 21.875 21.164062 21.703125 Z M 20.597656 20.886719 L 20.554688 20.546875 C 17.191406 20.84375 11.992188 22.605469 11.949219 22.605469 L 12.082031 22.949219 C 12.125 22.949219 17.320312 21.1875 20.597656 20.886719 Z M 18.457031 18.527344 L 18.371094 18.183594 L 15.574219 18.828125 L 15.660156 19.171875 Z M 17.976562 17.882812 L 17.890625 17.539062 L 15.574219 18.054688 L 15.660156 18.398438 Z M 10.550781 20.460938 L 10.464844 20.117188 L 8.933594 20.546875 L 9.023438 20.886719 Z M 10.550781 21.273438 L 10.464844 20.929688 L 9.589844 21.1875 L 9.679688 21.53125 Z M 10.550781 21.273438 " fill-opacity="1" fill-rule="nonzero"/><path fill="#3c2d26" d="M 23.085938 25.695312 L 23.21875 26.039062 C 19.15625 27.414062 19.113281 27.414062 19.070312 27.414062 C 19.070312 27.199219 19.070312 27.285156 19.027344 27.070312 C 19.15625 27.027344 21.515625 26.210938 23.085938 25.695312 Z M 23.085938 25.695312 " fill-opacity="1" fill-rule="nonzero"/><path fill="#3c2d26" d="M 22.914062 24.882812 L 23.042969 25.226562 L 18.195312 26.8125 L 18.066406 26.46875 Z M 22.914062 24.882812 " fill-opacity="1" fill-rule="nonzero"/><path fill="#3c2d26" d="M 22.78125 24.195312 L 22.871094 24.539062 C 21.910156 24.753906 12.167969 27.929688 12.082031 27.929688 L 11.949219 27.585938 C 12.34375 27.457031 21.820312 24.410156 22.78125 24.195312 Z M 22.78125 24.195312 " fill-opacity="1" fill-rule="nonzero"/><path fill="#3c2d26" d="M 22.5625 23.507812 L 22.652344 23.851562 C 21.164062 24.152344 12.167969 26.984375 12.082031 26.984375 L 11.949219 26.683594 C 12.34375 26.554688 21.035156 23.808594 22.5625 23.507812 Z M 22.5625 23.507812 " fill-opacity="1" fill-rule="nonzero"/><path fill="#3c2d26" d="M 21.996094 22.90625 L 22.039062 23.292969 C 20.117188 23.464844 11.90625 26.082031 11.816406 26.125 L 11.6875 25.78125 C 12.035156 25.652344 20.074219 23.121094 21.996094 22.90625 Z M 21.996094 22.90625 " fill-opacity="1" fill-rule="nonzero"/><path fill="#3c2d26" d="M 21.515625 22.21875 L 21.558594 22.5625 C 19.636719 22.777344 11.207031 25.398438 11.121094 25.398438 L 10.988281 25.054688 C 11.335938 24.96875 19.550781 22.433594 21.515625 22.21875 Z M 21.515625 22.21875 " fill-opacity="1" fill-rule="nonzero"/><path fill="#3c2d26" d="M 21.164062 21.316406 L 21.210938 21.660156 C 19.417969 21.832031 10.988281 24.324219 10.902344 24.324219 L 10.8125 23.980469 C 11.121094 23.894531 19.332031 21.488281 21.164062 21.316406 Z M 21.164062 21.316406 " fill-opacity="1" fill-rule="nonzero"/><path fill="#3c2d26" d="M 20.554688 20.546875 L 20.597656 20.886719 C 17.277344 21.1875 12.125 22.949219 12.082031 22.949219 L 11.949219 22.605469 C 11.992188 22.605469 17.234375 20.84375 20.554688 20.546875 Z M 20.554688 20.546875 " fill-opacity="1" fill-rule="nonzero"/><path fill="#3c2d26" d="M 18.414062 18.183594 L 18.457031 18.527344 L 15.660156 19.171875 L 15.617188 18.828125 Z M 18.414062 18.183594 " fill-opacity="1" fill-rule="nonzero"/><path fill="#3c2d26" d="M 17.890625 17.539062 L 17.976562 17.882812 L 15.660156 18.398438 L 15.617188 18.054688 Z M 17.890625 17.539062 " fill-opacity="1" fill-rule="nonzero"/><path fill="#3c2d26" d="M 10.464844 20.117188 L 10.550781 20.460938 L 9.023438 20.886719 L 8.933594 20.546875 Z M 10.464844 20.117188 " fill-opacity="1" fill-rule="nonzero"/><path fill="#3c2d26" d="M 10.464844 20.929688 L 10.550781 21.273438 L 9.679688 21.53125 L 9.589844 21.1875 Z M 10.464844 20.929688 " fill-opacity="1" fill-rule="nonzero"/><g fill="#f0efee" fill-opacity="1"><g transform="translate(36.990684, 22.555569)"><g><path d="M 2.238281 -1.128906 L 2.238281 -3.046875 L 3.746094 -3.046875 C 4.351562 -3.046875 4.800781 -2.691406 4.800781 -2.089844 C 4.800781 -1.484375 4.351562 -1.121094 3.746094 -1.121094 Z M 0.3125 -6.902344 L 0.3125 -5.792969 L 0.796875 -5.792969 L 0.796875 -1.128906 L 0.3125 -1.128906 L 0.3125 0 L 4.15625 0 C 5.339844 0 6.234375 -0.765625 6.234375 -1.882812 C 6.234375 -2.757812 5.707031 -3.339844 5.019531 -3.597656 C 5.449219 -3.929688 5.738281 -4.425781 5.738281 -5.027344 C 5.738281 -6.050781 4.878906 -6.902344 3.691406 -6.902344 Z M 2.238281 -3.867188 L 2.238281 -5.792969 L 3.292969 -5.792969 C 3.941406 -5.792969 4.308594 -5.328125 4.308594 -4.824219 C 4.308594 -4.265625 3.832031 -3.867188 3.292969 -3.867188 Z M 2.238281 -3.867188 "/></g></g></g><g fill="#f0efee" fill-opacity="1"><g transform="translate(46.172876, 22.555569)"><g><path d="M 0.3125 -6.902344 L 0.3125 -5.792969 L 0.796875 -5.792969 L 0.796875 -1.128906 L 0.3125 -1.128906 L 0.3125 0 L 5.738281 0 L 5.738281 -1.667969 L 4.738281 -1.667969 L 4.671875 -1.128906 L 2.238281 -1.128906 L 2.238281 -2.894531 L 4.253906 -2.894531 L 4.253906 -4.015625 L 2.238281 -4.015625 L 2.238281 -5.792969 L 4.671875 -5.792969 L 4.738281 -5.242188 L 5.738281 -5.242188 L 5.738281 -6.902344 Z M 0.3125 -6.902344 "/></g></g></g><g fill="#f0efee" fill-opacity="1"><g transform="translate(54.741584, 22.555569)"><g><path d="M 3.175781 -2.410156 L 3.175781 -1.121094 L 2.671875 -1.121094 L 2.671875 0 L 5.09375 0 L 5.09375 -1.121094 L 4.597656 -1.121094 L 4.597656 -2.410156 L 7.019531 -5.78125 L 7.570312 -5.78125 L 7.570312 -6.902344 L 4.964844 -6.902344 L 4.964844 -5.78125 L 5.511719 -5.78125 L 3.886719 -3.457031 L 2.261719 -5.78125 L 2.808594 -5.78125 L 2.808594 -6.902344 L 0.203125 -6.902344 L 0.203125 -5.78125 L 0.753906 -5.78125 Z M 3.175781 -2.410156 "/></g></g></g><g fill="#f0efee" fill-opacity="1"><g transform="translate(65.15074, 22.555569)"><g><path d="M 4.003906 -5.933594 C 5.492188 -5.933594 6.074219 -4.824219 6.074219 -3.457031 C 6.074219 -2.089844 5.492188 -0.96875 4.003906 -0.96875 C 2.507812 -0.96875 1.925781 -2.089844 1.925781 -3.457031 C 1.925781 -4.824219 2.507812 -5.933594 4.003906 -5.933594 Z M 4.003906 -7.0625 C 1.625 -7.0625 0.496094 -5.449219 0.496094 -3.457031 C 0.496094 -1.464844 1.625 0.140625 4.003906 0.140625 C 6.386719 0.140625 7.515625 -1.464844 7.515625 -3.457031 C 7.515625 -5.449219 6.386719 -7.0625 4.003906 -7.0625 Z M 4.003906 -7.0625 "/></g></g></g><g fill="#f0efee" fill-opacity="1"><g transform="translate(75.796675, 22.555569)"><g><path d="M 5.394531 -2.347656 L 1.925781 -6.902344 L 0.3125 -6.914062 L 0.3125 -5.792969 L 0.796875 -5.792969 L 0.796875 -1.128906 L 0.3125 -1.128906 L 0.3125 0 L 2.722656 0 L 2.722656 -1.128906 L 2.238281 -1.128906 L 2.238281 -4.554688 L 5.707031 0 L 6.828125 0 L 6.828125 -5.792969 L 7.3125 -5.792969 L 7.3125 -6.902344 L 4.898438 -6.914062 L 4.898438 -5.792969 L 5.394531 -5.792969 Z M 5.394531 -2.347656 "/></g></g></g><g fill="#f0efee" fill-opacity="1"><g transform="translate(86.055149, 22.555569)"><g><path d="M 3.867188 -5.792969 C 5.308594 -5.792969 5.878906 -4.75 5.878906 -3.457031 C 5.878906 -2.164062 5.308594 -1.128906 3.867188 -1.128906 L 2.238281 -1.128906 L 2.238281 -5.792969 Z M 0.3125 -6.902344 L 0.3125 -5.792969 L 0.796875 -5.792969 L 0.796875 -1.128906 L 0.3125 -1.128906 L 0.3125 0 L 4.046875 0 C 6.265625 0 7.3125 -1.550781 7.3125 -3.457031 C 7.3125 -5.363281 6.265625 -6.902344 4.046875 -6.902344 Z M 0.3125 -6.902344 "/></g></g></g><g fill="#f0efee" fill-opacity="1"><g transform="translate(96.494536, 22.555569)"><g/></g></g><g fill="#f0efee" fill-opacity="1"><g transform="translate(102.103467, 22.555569)"><g/></g></g><g fill="#f0efee" fill-opacity="1"><g transform="translate(107.712398, 22.555569)"><g/></g></g><g fill="#f0efee" fill-opacity="1"><g transform="translate(41.427911, 37.584413)"><g/></g></g><g fill="#f0efee" fill-opacity="1"><g transform="translate(47.034374, 37.584413)"><g><path d="M 2.671875 0 L 2.671875 -1.128906 L 2.238281 -1.128906 L 2.238281 -3.070312 L 2.941406 -3.070312 L 4.769531 0 L 6.234375 0 L 6.234375 -1.121094 L 5.640625 -1.121094 L 4.394531 -3.164062 C 5.191406 -3.390625 5.738281 -4.027344 5.738281 -4.984375 C 5.738281 -6.203125 4.835938 -6.902344 3.691406 -6.902344 L 0.3125 -6.902344 L 0.3125 -5.792969 L 0.796875 -5.792969 L 0.796875 -1.128906 L 0.3125 -1.128906 L 0.3125 0 Z M 2.238281 -3.886719 L 2.238281 -5.792969 L 3.292969 -5.792969 C 3.917969 -5.792969 4.308594 -5.382812 4.308594 -4.835938 C 4.308594 -4.265625 3.898438 -3.886719 3.292969 -3.886719 Z M 2.238281 -3.886719 "/></g></g></g><g fill="#f0efee" fill-opacity="1"><g transform="translate(56.098174, 37.584413)"><g><path d="M 0.3125 -6.902344 L 0.3125 -5.792969 L 0.796875 -5.792969 L 0.796875 -1.128906 L 0.3125 -1.128906 L 0.3125 0 L 5.738281 0 L 5.738281 -1.667969 L 4.738281 -1.667969 L 4.671875 -1.128906 L 2.238281 -1.128906 L 2.238281 -2.894531 L 4.253906 -2.894531 L 4.253906 -4.015625 L 2.238281 -4.015625 L 2.238281 -5.792969 L 4.671875 -5.792969 L 4.738281 -5.242188 L 5.738281 -5.242188 L 5.738281 -6.902344 Z M 0.3125 -6.902344 "/></g></g></g><g fill="#f0efee" fill-opacity="1"><g transform="translate(64.666882, 37.584413)"><g><path d="M 5.296875 -4.726562 L 5.296875 -5.761719 C 5.296875 -5.761719 4.554688 -7.0625 2.746094 -7.0625 C 1.304688 -7.0625 0.386719 -6.265625 0.386719 -5.027344 C 0.386719 -4.265625 0.765625 -3.78125 1.625 -3.339844 L 3.660156 -2.304688 C 4.070312 -2.089844 4.179688 -1.851562 4.179688 -1.570312 C 4.179688 -1.121094 3.757812 -0.851562 3.101562 -0.851562 C 2.109375 -0.851562 1.59375 -1.335938 1.355469 -1.65625 L 1.3125 -2.1875 L 0.386719 -2.1875 L 0.386719 -1.152344 C 0.386719 -1.152344 1.140625 0.140625 3.078125 0.140625 C 4.585938 0.140625 5.609375 -0.59375 5.609375 -1.832031 C 5.609375 -2.5625 5.265625 -3.113281 4.480469 -3.511719 L 2.367188 -4.578125 C 1.992188 -4.792969 1.808594 -4.996094 1.808594 -5.296875 C 1.808594 -5.78125 2.195312 -6.0625 2.777344 -6.0625 C 3.488281 -6.0625 4.003906 -5.707031 4.308594 -5.40625 L 4.351562 -4.726562 Z M 5.296875 -4.726562 "/></g></g></g><g fill="#f0efee" fill-opacity="1"><g transform="translate(73.214068, 37.584413)"><g><path d="M 3.8125 -0.96875 C 2.84375 -0.96875 2.238281 -1.527344 2.238281 -2.378906 L 2.238281 -5.792969 L 2.722656 -5.78125 L 2.722656 -6.902344 L 0.3125 -6.914062 L 0.3125 -5.792969 L 0.796875 -5.792969 L 0.796875 -2.378906 C 0.796875 -0.828125 2.011719 0.140625 3.8125 0.140625 C 5.609375 0.140625 6.828125 -0.894531 6.828125 -2.378906 L 6.828125 -5.792969 L 7.3125 -5.792969 L 7.3125 -6.902344 L 4.898438 -6.914062 L 4.898438 -5.792969 L 5.394531 -5.792969 L 5.394531 -2.378906 C 5.394531 -1.527344 4.78125 -0.96875 3.8125 -0.96875 Z M 3.8125 -0.96875 "/></g></g></g><g fill="#f0efee" fill-opacity="1"><g transform="translate(83.47254, 37.584413)"><g><path d="M 2.421875 -6.902344 L 0.3125 -6.914062 L 0.3125 -5.792969 L 0.796875 -5.792969 L 0.796875 -1.128906 L 0.3125 -1.128906 L 0.3125 0 L 2.722656 0 L 2.722656 -1.128906 L 2.238281 -1.128906 L 2.238281 -5.09375 L 4.089844 -2.164062 L 4.523438 -2.164062 L 6.386719 -5.09375 L 6.386719 -1.128906 L 5.878906 -1.128906 L 5.878906 0 L 8.300781 0 L 8.300781 -1.128906 L 7.804688 -1.128906 L 7.804688 -5.792969 L 8.300781 -5.792969 L 8.300781 -6.902344 L 6.191406 -6.902344 L 4.308594 -3.832031 Z M 2.421875 -6.902344 "/></g></g></g><g fill="#f0efee" fill-opacity="1"><g transform="translate(94.710429, 37.584413)"><g><path d="M 0.3125 -6.902344 L 0.3125 -5.792969 L 0.796875 -5.792969 L 0.796875 -1.128906 L 0.3125 -1.128906 L 0.3125 0 L 5.738281 0 L 5.738281 -1.667969 L 4.738281 -1.667969 L 4.671875 -1.128906 L 2.238281 -1.128906 L 2.238281 -2.894531 L 4.253906 -2.894531 L 4.253906 -4.015625 L 2.238281 -4.015625 L 2.238281 -5.792969 L 4.671875 -5.792969 L 4.738281 -5.242188 L 5.738281 -5.242188 L 5.738281 -6.902344 Z M 0.3125 -6.902344 "/></g></g></g><g fill="#f0efee" fill-opacity="1"><g transform="translate(103.275128, 37.584413)"><g/></g></g></svg>