<svg xmlns="http://www.w3.org/2000/svg" xmlns:xlink="http://www.w3.org/1999/xlink" width="500" zoomAndPan="magnify" viewBox="0 0 375 374.999991" height="500" preserveAspectRatio="xMidYMid meet" version="1.0"><defs><g/><clipPath id="34f38aceda"><path d="M 218 159 L 246.179688 159 L 246.179688 190 L 218 190 Z M 218 159 " clip-rule="nonzero"/></clipPath><clipPath id="f03545cf28"><path d="M 209 176 L 239 176 L 239 205.601562 L 209 205.601562 Z M 209 176 " clip-rule="nonzero"/></clipPath><clipPath id="12eae8777a"><path d="M 212 190 L 230 190 L 230 205.601562 L 212 205.601562 Z M 212 190 " clip-rule="nonzero"/></clipPath><clipPath id="88840fc00b"><path d="M 192.179688 152 L 199 152 L 199 159 L 192.179688 159 Z M 192.179688 152 " clip-rule="nonzero"/></clipPath><clipPath id="14b34f4ba4"><path d="M 205 141.101562 L 210 141.101562 L 210 145 L 205 145 Z M 205 141.101562 " clip-rule="nonzero"/></clipPath></defs><path fill="#f9ed32" d="M 220.53125 149.996094 C 221 149.996094 221.449219 149.90625 221.882812 149.730469 C 222.316406 149.550781 222.695312 149.300781 223.027344 148.972656 C 223.359375 148.644531 223.613281 148.265625 223.792969 147.835938 C 223.972656 147.410156 224.0625 146.960938 224.0625 146.5 C 224.066406 146.035156 223.976562 145.589844 223.796875 145.160156 C 223.617188 144.730469 223.363281 144.351562 223.03125 144.023438 C 222.699219 143.695312 222.320312 143.441406 221.886719 143.265625 C 221.453125 143.085938 221.003906 142.996094 220.535156 142.996094 C 220.066406 142.996094 219.617188 143.085938 219.183594 143.261719 C 218.75 143.4375 218.367188 143.691406 218.035156 144.019531 C 217.703125 144.34375 217.445312 144.722656 217.265625 145.152344 C 217.085938 145.578125 216.996094 146.027344 216.996094 146.488281 C 216.996094 146.953125 217.085938 147.402344 217.265625 147.832031 C 217.445312 148.257812 217.699219 148.636719 218.03125 148.96875 C 218.363281 149.296875 218.742188 149.550781 219.175781 149.726562 C 219.609375 149.90625 220.0625 149.996094 220.53125 149.996094 Z M 220.53125 149.996094 " fill-opacity="0.7765" fill-rule="evenodd"/><path fill="#662d91" d="M 237.648438 152.695312 C 239.605469 154.941406 240.839844 157.527344 241.347656 160.449219 C 242.0625 164.597656 240.972656 168.441406 241.738281 171.023438 C 241.917969 171.601562 242.15625 172.152344 242.457031 172.679688 C 242.101562 172.886719 241.730469 173.074219 241.351562 173.238281 C 240.972656 173.402344 240.582031 173.542969 240.1875 173.664062 C 239.789062 173.785156 239.386719 173.882812 238.980469 173.957031 C 238.574219 174.03125 238.160156 174.085938 237.75 174.113281 C 237.335938 174.140625 236.921875 174.144531 236.507812 174.125 C 236.09375 174.105469 235.679688 174.066406 235.269531 174 C 234.863281 173.933594 234.457031 173.84375 234.058594 173.734375 C 233.660156 173.621094 233.269531 173.488281 232.882812 173.332031 C 232.5 173.175781 232.128906 172.996094 231.765625 172.796875 C 231.402344 172.601562 231.050781 172.382812 230.714844 172.144531 C 230.375 171.90625 230.054688 171.648438 229.746094 171.371094 C 229.4375 171.097656 229.148438 170.804688 228.875 170.496094 C 228.597656 170.1875 228.34375 169.867188 228.105469 169.527344 C 227.871094 169.191406 227.65625 168.84375 227.457031 168.480469 C 227.261719 168.117188 227.085938 167.746094 226.933594 167.363281 C 226.78125 166.984375 226.652344 166.59375 226.542969 166.199219 C 226.4375 165.800781 226.351562 165.398438 226.289062 164.992188 C 226.226562 164.585938 226.191406 164.179688 226.175781 163.769531 C 226.164062 163.359375 226.171875 162.949219 226.207031 162.539062 C 226.238281 162.128906 226.296875 161.722656 226.378906 161.320312 C 226.457031 160.917969 226.5625 160.523438 226.6875 160.128906 C 226.816406 159.738281 226.964844 159.355469 227.132812 158.984375 C 227.304688 158.609375 227.496094 158.246094 227.710938 157.894531 C 227.925781 157.539062 228.15625 157.203125 228.410156 156.875 C 228.660156 156.550781 228.933594 156.238281 229.21875 155.945312 C 229.507812 155.648438 229.8125 155.371094 230.132812 155.113281 C 230.453125 154.851562 230.789062 154.609375 231.136719 154.386719 C 231.484375 154.164062 231.847656 153.960938 232.21875 153.78125 C 232.589844 153.601562 232.972656 153.441406 233.363281 153.300781 C 233.753906 153.164062 234.148438 153.046875 234.554688 152.957031 C 234.957031 152.863281 235.367188 152.792969 235.777344 152.746094 C 236.191406 152.699219 236.601562 152.675781 237.019531 152.675781 C 237.222656 152.675781 237.4375 152.683594 237.648438 152.695312 Z M 237.648438 152.695312 " fill-opacity="0.7765" fill-rule="evenodd"/><g clip-path="url(#34f38aceda)"><path fill="#92278f" d="M 241.558594 162.277344 C 241.785156 165.710938 241.085938 168.824219 241.738281 171.03125 C 242.855469 174.800781 247.808594 178.214844 245.492188 180.152344 C 244.761719 180.734375 243.5 180.773438 242.761719 181.34375 C 241.585938 182.253906 242.390625 183.234375 242.496094 183.945312 C 242.542969 184.28125 242.238281 184.824219 241.21875 185.480469 C 241.988281 186.042969 241.917969 186.519531 241.640625 186.957031 C 240.890625 187.464844 240.101562 187.90625 239.269531 188.273438 C 238.4375 188.640625 237.582031 188.929688 236.699219 189.144531 C 235.8125 189.359375 234.917969 189.492188 234.007812 189.542969 C 233.101562 189.597656 232.195312 189.570312 231.289062 189.460938 C 230.386719 189.351562 229.5 189.160156 228.632812 188.894531 C 227.765625 188.625 226.925781 188.28125 226.121094 187.863281 C 225.316406 187.441406 224.554688 186.957031 223.835938 186.402344 C 223.121094 185.84375 222.460938 185.230469 221.855469 184.558594 C 221.25 183.882812 220.710938 183.160156 220.238281 182.390625 C 219.769531 181.621094 219.371094 180.8125 219.042969 179.972656 C 218.71875 179.128906 218.476562 178.265625 218.308594 177.378906 C 218.140625 176.492188 218.058594 175.601562 218.054688 174.699219 C 218.050781 173.796875 218.128906 172.902344 218.289062 172.015625 C 218.449219 171.128906 218.691406 170.265625 219.007812 169.417969 C 219.328125 168.574219 219.722656 167.765625 220.1875 166.992188 C 220.65625 166.21875 221.1875 165.492188 221.789062 164.816406 C 222.386719 164.136719 223.042969 163.519531 223.757812 162.957031 C 224.46875 162.398438 225.226562 161.90625 226.03125 161.484375 C 226.832031 161.058594 227.667969 160.710938 228.535156 160.433594 C 229.402344 160.160156 230.289062 159.964844 231.191406 159.851562 C 232.09375 159.734375 233 159.699219 233.90625 159.746094 C 234.816406 159.792969 235.714844 159.921875 236.597656 160.128906 C 237.484375 160.335938 238.34375 160.621094 239.175781 160.984375 C 240.011719 161.347656 240.804688 161.78125 241.558594 162.285156 Z M 241.558594 162.277344 " fill-opacity="0.7765" fill-rule="evenodd"/></g><g clip-path="url(#f03545cf28)"><path fill="#007fc6" d="M 238.332031 195.25 C 232.609375 197.554688 224.945312 189.816406 223.914062 205.601562 C 220.191406 203.183594 216.25 201.195312 212.082031 199.640625 C 211.738281 199.140625 211.429688 198.621094 211.152344 198.082031 C 210.875 197.542969 210.628906 196.988281 210.421875 196.417969 C 210.214844 195.851562 210.042969 195.269531 209.910156 194.679688 C 209.773438 194.089844 209.675781 193.492188 209.617188 192.890625 C 209.558594 192.289062 209.539062 191.683594 209.554688 191.082031 C 209.570312 190.476562 209.628906 189.875 209.71875 189.277344 C 209.8125 188.675781 209.945312 188.085938 210.113281 187.507812 C 210.28125 186.925781 210.484375 186.355469 210.722656 185.796875 C 210.960938 185.242188 211.238281 184.703125 211.542969 184.179688 C 211.851562 183.65625 212.191406 183.15625 212.5625 182.675781 C 212.933594 182.195312 213.335938 181.738281 213.765625 181.308594 C 214.191406 180.875 214.648438 180.472656 215.128906 180.097656 C 215.609375 179.722656 216.109375 179.378906 216.632812 179.070312 C 217.15625 178.757812 217.695312 178.476562 218.253906 178.230469 C 218.8125 177.988281 219.386719 177.777344 219.972656 177.601562 C 220.554688 177.429688 221.148438 177.289062 221.753906 177.191406 C 222.355469 177.089844 222.960938 177.027344 223.574219 177 C 224.183594 176.972656 224.792969 176.988281 225.402344 177.035156 C 226.011719 177.085938 226.613281 177.175781 227.210938 177.296875 C 227.808594 177.421875 228.398438 177.585938 228.976562 177.78125 C 229.554688 177.980469 230.117188 178.210938 230.664062 178.480469 C 231.210938 178.746094 231.742188 179.046875 232.25 179.382812 C 232.761719 179.714844 233.25 180.078125 233.714844 180.472656 C 234.175781 180.863281 234.613281 181.285156 235.027344 181.734375 C 235.4375 182.179688 235.816406 182.652344 236.167969 183.148438 C 236.519531 183.640625 236.839844 184.15625 237.125 184.691406 C 237.414062 185.226562 237.664062 185.777344 237.882812 186.339844 C 238.097656 186.90625 238.277344 187.484375 238.421875 188.074219 C 238.566406 188.660156 238.671875 189.253906 238.742188 189.855469 C 238.808594 190.457031 238.839844 191.0625 238.832031 191.667969 C 238.824219 192.269531 238.78125 192.875 238.695312 193.472656 C 238.613281 194.074219 238.492188 194.664062 238.332031 195.25 Z M 238.332031 195.25 " fill-opacity="0.7765" fill-rule="evenodd"/></g><g clip-path="url(#12eae8777a)"><path fill="#01a6e6" d="M 229.929688 195.328125 C 226.90625 195.457031 224.464844 197.179688 223.914062 205.601562 C 220.214844 203.195312 216.292969 201.21875 212.152344 199.664062 C 212.164062 199.152344 212.21875 198.644531 212.316406 198.140625 C 212.414062 197.636719 212.550781 197.148438 212.726562 196.664062 C 212.902344 196.183594 213.121094 195.722656 213.375 195.273438 C 213.628906 194.828125 213.917969 194.40625 214.238281 194.007812 C 214.5625 193.609375 214.917969 193.238281 215.304688 192.894531 C 215.6875 192.554688 216.097656 192.246094 216.535156 191.96875 C 216.96875 191.695312 217.425781 191.457031 217.902344 191.253906 C 218.378906 191.050781 218.867188 190.890625 219.367188 190.769531 C 219.871094 190.644531 220.378906 190.5625 220.894531 190.523438 C 221.410156 190.484375 221.925781 190.484375 222.441406 190.53125 C 222.957031 190.574219 223.464844 190.65625 223.964844 190.78125 C 224.464844 190.910156 224.953125 191.074219 225.429688 191.277344 C 225.902344 191.484375 226.355469 191.726562 226.789062 192.003906 C 227.222656 192.28125 227.632812 192.59375 228.015625 192.9375 C 228.398438 193.28125 228.75 193.65625 229.070312 194.054688 C 229.390625 194.457031 229.679688 194.882812 229.929688 195.328125 Z M 229.929688 195.328125 " fill-opacity="0.7765" fill-rule="evenodd"/></g><path fill="#2063b2" d="M 243.761719 180.859375 C 243.402344 180.964844 243.066406 181.121094 242.761719 181.335938 C 241.585938 182.242188 242.390625 183.226562 242.496094 183.9375 C 242.542969 184.273438 242.238281 184.816406 241.21875 185.472656 C 242.394531 186.332031 241.605469 186.988281 241.128906 187.621094 C 238.929688 189.195312 241.992188 192.601562 238.359375 195.238281 C 234.695312 196.734375 230.238281 194.097656 227.226562 196.121094 C 227.132812 195.578125 227.070312 195.027344 227.042969 194.476562 C 227.015625 193.921875 227.023438 193.371094 227.066406 192.816406 C 227.109375 192.265625 227.1875 191.71875 227.296875 191.175781 C 227.410156 190.636719 227.554688 190.101562 227.730469 189.578125 C 227.910156 189.050781 228.121094 188.539062 228.363281 188.042969 C 228.605469 187.542969 228.875 187.0625 229.179688 186.597656 C 229.480469 186.132812 229.8125 185.6875 230.171875 185.261719 C 230.527344 184.835938 230.914062 184.4375 231.320312 184.058594 C 231.730469 183.679688 232.160156 183.332031 232.613281 183.007812 C 233.066406 182.683594 233.539062 182.386719 234.027344 182.121094 C 234.515625 181.851562 235.023438 181.617188 235.539062 181.414062 C 236.058594 181.210938 236.589844 181.039062 237.132812 180.898438 C 237.671875 180.757812 238.21875 180.652344 238.773438 180.582031 C 239.328125 180.507812 239.882812 180.472656 240.441406 180.46875 C 241 180.464844 241.558594 180.496094 242.113281 180.558594 C 242.667969 180.625 243.21875 180.722656 243.761719 180.855469 Z M 243.761719 180.859375 " fill-opacity="0.7765" fill-rule="evenodd"/><path fill="#12bcbc" d="M 201.191406 181.03125 C 201.535156 181.03125 201.875 180.996094 202.210938 180.929688 C 202.550781 180.863281 202.875 180.765625 203.195312 180.636719 C 203.511719 180.503906 203.8125 180.347656 204.097656 180.15625 C 204.386719 179.96875 204.648438 179.753906 204.894531 179.511719 C 205.136719 179.273438 205.351562 179.011719 205.542969 178.726562 C 205.734375 178.445312 205.898438 178.144531 206.027344 177.832031 C 206.160156 177.515625 206.257812 177.191406 206.328125 176.859375 C 206.394531 176.523438 206.425781 176.1875 206.425781 175.847656 C 206.425781 175.507812 206.394531 175.167969 206.328125 174.835938 C 206.257812 174.5 206.160156 174.175781 206.027344 173.863281 C 205.898438 173.546875 205.734375 173.25 205.546875 172.964844 C 205.355469 172.683594 205.136719 172.421875 204.894531 172.179688 C 204.652344 171.941406 204.386719 171.726562 204.101562 171.535156 C 203.816406 171.347656 203.511719 171.1875 203.195312 171.058594 C 202.878906 170.925781 202.550781 170.828125 202.214844 170.761719 C 201.875 170.695312 201.535156 170.664062 201.191406 170.664062 C 200.847656 170.664062 200.507812 170.695312 200.171875 170.761719 C 199.832031 170.828125 199.507812 170.925781 199.1875 171.058594 C 198.871094 171.1875 198.570312 171.347656 198.285156 171.535156 C 197.996094 171.726562 197.734375 171.941406 197.492188 172.183594 C 197.246094 172.421875 197.03125 172.683594 196.839844 172.96875 C 196.648438 173.25 196.488281 173.550781 196.355469 173.863281 C 196.222656 174.179688 196.125 174.503906 196.058594 174.835938 C 195.992188 175.171875 195.957031 175.507812 195.957031 175.847656 C 195.957031 176.1875 195.992188 176.523438 196.0625 176.859375 C 196.128906 177.191406 196.226562 177.515625 196.359375 177.828125 C 196.492188 178.144531 196.652344 178.441406 196.84375 178.722656 C 197.035156 179.007812 197.25 179.269531 197.492188 179.507812 C 197.738281 179.75 198 179.964844 198.285156 180.152344 C 198.570312 180.34375 198.871094 180.5 199.191406 180.632812 C 199.507812 180.761719 199.832031 180.859375 200.171875 180.929688 C 200.507812 180.996094 200.847656 181.027344 201.191406 181.03125 Z M 201.191406 181.03125 " fill-opacity="0.7765" fill-rule="evenodd"/><path fill="#00b9f1" d="M 212.152344 188.246094 C 212.46875 188.246094 212.777344 188.214844 213.085938 188.15625 C 213.394531 188.097656 213.691406 188.007812 213.984375 187.890625 C 214.273438 187.769531 214.546875 187.625 214.808594 187.453125 C 215.070312 187.28125 215.3125 187.085938 215.535156 186.867188 C 215.757812 186.648438 215.957031 186.410156 216.128906 186.152344 C 216.304688 185.894531 216.453125 185.621094 216.574219 185.335938 C 216.695312 185.046875 216.785156 184.753906 216.847656 184.449219 C 216.910156 184.144531 216.941406 183.835938 216.941406 183.527344 C 216.941406 183.214844 216.910156 182.90625 216.851562 182.601562 C 216.789062 182.296875 216.699219 182.003906 216.582031 181.714844 C 216.460938 181.429688 216.316406 181.15625 216.140625 180.894531 C 215.96875 180.636719 215.769531 180.398438 215.546875 180.179688 C 215.328125 179.957031 215.085938 179.761719 214.824219 179.589844 C 214.5625 179.417969 214.289062 179.269531 214 179.152344 C 213.710938 179.03125 213.410156 178.941406 213.105469 178.882812 C 212.796875 178.820312 212.484375 178.789062 212.171875 178.789062 C 211.859375 178.789062 211.546875 178.820312 211.238281 178.878906 C 210.933594 178.941406 210.632812 179.027344 210.34375 179.148438 C 210.054688 179.265625 209.777344 179.410156 209.515625 179.585938 C 209.257812 179.757812 209.015625 179.953125 208.792969 180.171875 C 208.570312 180.390625 208.371094 180.628906 208.199219 180.890625 C 208.023438 181.148438 207.875 181.417969 207.757812 181.707031 C 207.636719 181.992188 207.546875 182.289062 207.484375 182.59375 C 207.421875 182.898438 207.394531 183.207031 207.394531 183.515625 C 207.394531 183.828125 207.425781 184.132812 207.484375 184.4375 C 207.546875 184.742188 207.636719 185.035156 207.757812 185.320312 C 207.878906 185.609375 208.023438 185.878906 208.199219 186.136719 C 208.371094 186.394531 208.566406 186.632812 208.789062 186.851562 C 209.011719 187.070312 209.25 187.269531 209.507812 187.441406 C 209.769531 187.613281 210.042969 187.757812 210.332031 187.878906 C 210.621094 187.996094 210.917969 188.089844 211.226562 188.148438 C 211.53125 188.210938 211.839844 188.242188 212.152344 188.246094 Z M 212.152344 188.246094 " fill-opacity="0.7765" fill-rule="evenodd"/><path fill="#8dc63f" d="M 200.4375 168.414062 C 200.925781 168.414062 201.390625 168.324219 201.839844 168.140625 C 202.292969 167.953125 202.6875 167.691406 203.03125 167.351562 C 203.375 167.011719 203.640625 166.617188 203.828125 166.171875 C 204.011719 165.726562 204.105469 165.265625 204.105469 164.78125 C 204.105469 164.300781 204.011719 163.835938 203.824219 163.390625 C 203.640625 162.949219 203.375 162.554688 203.03125 162.214844 C 202.6875 161.875 202.289062 161.609375 201.839844 161.425781 C 201.390625 161.242188 200.921875 161.152344 200.4375 161.152344 C 199.949219 161.152344 199.480469 161.242188 199.03125 161.429688 C 198.582031 161.613281 198.1875 161.875 197.84375 162.214844 C 197.5 162.558594 197.234375 162.949219 197.046875 163.394531 C 196.863281 163.839844 196.769531 164.304688 196.769531 164.785156 C 196.769531 165.265625 196.863281 165.730469 197.050781 166.175781 C 197.238281 166.617188 197.503906 167.011719 197.847656 167.351562 C 198.191406 167.691406 198.585938 167.953125 199.035156 168.136719 C 199.484375 168.324219 199.953125 168.414062 200.4375 168.414062 Z M 200.4375 168.414062 " fill-opacity="0.7765" fill-rule="evenodd"/><g clip-path="url(#88840fc00b)"><path fill="#ffd900" d="M 198.609375 155.757812 C 198.609375 156.175781 198.527344 156.578125 198.367188 156.960938 C 198.207031 157.347656 197.976562 157.6875 197.679688 157.984375 C 197.378906 158.277344 197.035156 158.503906 196.648438 158.664062 C 196.257812 158.824219 195.851562 158.902344 195.433594 158.902344 C 195.011719 158.902344 194.605469 158.824219 194.21875 158.664062 C 193.828125 158.503906 193.484375 158.277344 193.1875 157.984375 C 192.886719 157.6875 192.660156 157.347656 192.496094 156.960938 C 192.335938 156.578125 192.257812 156.175781 192.257812 155.757812 C 192.257812 155.34375 192.335938 154.941406 192.496094 154.554688 C 192.660156 154.171875 192.886719 153.828125 193.1875 153.535156 C 193.484375 153.238281 193.828125 153.011719 194.21875 152.851562 C 194.605469 152.695312 195.011719 152.613281 195.433594 152.613281 C 195.851562 152.613281 196.257812 152.695312 196.648438 152.851562 C 197.035156 153.011719 197.378906 153.238281 197.679688 153.535156 C 197.976562 153.828125 198.207031 154.171875 198.367188 154.554688 C 198.527344 154.941406 198.609375 155.34375 198.609375 155.757812 Z M 198.609375 155.757812 " fill-opacity="0.7765" fill-rule="nonzero"/></g><path fill="#009444" d="M 202.140625 149.996094 C 202.535156 149.996094 202.914062 149.921875 203.277344 149.773438 C 203.640625 149.625 203.960938 149.414062 204.238281 149.136719 C 204.519531 148.863281 204.734375 148.546875 204.882812 148.183594 C 205.035156 147.824219 205.109375 147.449219 205.109375 147.0625 C 205.109375 146.671875 205.035156 146.296875 204.886719 145.9375 C 204.734375 145.578125 204.519531 145.261719 204.242188 144.984375 C 203.964844 144.710938 203.644531 144.496094 203.28125 144.347656 C 202.917969 144.199219 202.539062 144.125 202.144531 144.125 C 201.753906 144.125 201.375 144.199219 201.011719 144.347656 C 200.648438 144.496094 200.328125 144.707031 200.046875 144.984375 C 199.769531 145.257812 199.554688 145.578125 199.40625 145.9375 C 199.253906 146.296875 199.179688 146.671875 199.179688 147.058594 C 199.179688 147.449219 199.253906 147.824219 199.40625 148.183594 C 199.558594 148.542969 199.769531 148.859375 200.046875 149.132812 C 200.328125 149.410156 200.644531 149.621094 201.007812 149.769531 C 201.371094 149.921875 201.75 149.996094 202.140625 149.996094 Z M 202.140625 149.996094 " fill-opacity="0.7765" fill-rule="evenodd"/><path fill="#56ba48" d="M 203.148438 157.316406 C 203.410156 157.316406 203.660156 157.265625 203.898438 157.167969 C 204.136719 157.070312 204.351562 156.929688 204.535156 156.746094 C 204.71875 156.566406 204.859375 156.355469 204.957031 156.117188 C 205.058594 155.878906 205.109375 155.632812 205.109375 155.375 C 205.109375 155.117188 205.058594 154.871094 204.957031 154.632812 C 204.859375 154.394531 204.71875 154.183594 204.535156 154.003906 C 204.351562 153.820312 204.136719 153.679688 203.898438 153.582031 C 203.660156 153.484375 203.410156 153.433594 203.148438 153.433594 C 202.890625 153.433594 202.640625 153.484375 202.398438 153.582031 C 202.160156 153.679688 201.949219 153.820312 201.765625 154.003906 C 201.582031 154.183594 201.4375 154.394531 201.339844 154.632812 C 201.238281 154.871094 201.191406 155.117188 201.191406 155.375 C 201.191406 155.632812 201.242188 155.878906 201.339844 156.117188 C 201.441406 156.355469 201.582031 156.5625 201.765625 156.746094 C 201.949219 156.925781 202.160156 157.066406 202.398438 157.164062 C 202.640625 157.265625 202.890625 157.3125 203.148438 157.316406 Z M 203.148438 157.316406 " fill-opacity="0.7765" fill-rule="evenodd"/><g clip-path="url(#14b34f4ba4)"><path fill="#fbad17" d="M 207.234375 144.980469 C 207.492188 144.980469 207.742188 144.933594 207.984375 144.832031 C 208.222656 144.734375 208.433594 144.59375 208.621094 144.414062 C 208.804688 144.230469 208.945312 144.023438 209.042969 143.785156 C 209.144531 143.546875 209.191406 143.300781 209.191406 143.042969 C 209.191406 142.785156 209.144531 142.535156 209.042969 142.300781 C 208.945312 142.0625 208.804688 141.851562 208.621094 141.671875 C 208.433594 141.488281 208.222656 141.347656 207.984375 141.25 C 207.742188 141.152344 207.492188 141.101562 207.234375 141.101562 C 206.972656 141.101562 206.722656 141.152344 206.484375 141.25 C 206.246094 141.347656 206.03125 141.488281 205.847656 141.671875 C 205.664062 141.851562 205.523438 142.0625 205.425781 142.300781 C 205.324219 142.535156 205.277344 142.785156 205.277344 143.042969 C 205.277344 143.296875 205.328125 143.546875 205.425781 143.785156 C 205.527344 144.019531 205.667969 144.230469 205.851562 144.410156 C 206.035156 144.59375 206.246094 144.734375 206.484375 144.832031 C 206.726562 144.929688 206.976562 144.980469 207.234375 144.980469 Z M 207.234375 144.980469 " fill-opacity="0.7765" fill-rule="evenodd"/></g><path fill="#f15c22" d="M 195.203125 149.304688 C 195.398438 149.304688 195.589844 149.265625 195.769531 149.191406 C 195.949219 149.117188 196.109375 149.007812 196.25 148.871094 C 196.386719 148.734375 196.492188 148.574219 196.566406 148.394531 C 196.644531 148.214844 196.679688 148.027344 196.679688 147.832031 C 196.679688 147.636719 196.640625 147.449219 196.566406 147.269531 C 196.488281 147.09375 196.382812 146.933594 196.242188 146.796875 C 196.101562 146.660156 195.941406 146.554688 195.761719 146.480469 C 195.578125 146.40625 195.390625 146.367188 195.195312 146.367188 C 194.996094 146.367188 194.808594 146.40625 194.628906 146.480469 C 194.445312 146.554688 194.285156 146.660156 194.148438 146.800781 C 194.007812 146.9375 193.902344 147.097656 193.828125 147.277344 C 193.75 147.457031 193.714844 147.640625 193.714844 147.835938 C 193.714844 148.03125 193.753906 148.21875 193.828125 148.398438 C 193.90625 148.578125 194.011719 148.738281 194.152344 148.875 C 194.292969 149.011719 194.453125 149.121094 194.632812 149.195312 C 194.816406 149.269531 195.007812 149.304688 195.203125 149.304688 Z M 195.203125 149.304688 " fill-opacity="0.7765" fill-rule="evenodd"/><path fill="#fbad17" d="M 230.445312 164.28125 C 230.445312 165.089844 230.367188 165.886719 230.207031 166.675781 C 230.050781 167.464844 229.8125 168.234375 229.503906 168.976562 C 229.191406 169.722656 228.808594 170.429688 228.359375 171.097656 C 227.90625 171.769531 227.390625 172.386719 226.816406 172.957031 C 226.242188 173.527344 225.617188 174.035156 224.941406 174.484375 C 224.261719 174.929688 223.550781 175.308594 222.796875 175.617188 C 222.046875 175.925781 221.273438 176.15625 220.472656 176.316406 C 219.675781 176.472656 218.871094 176.550781 218.058594 176.550781 C 217.242188 176.550781 216.4375 176.472656 215.640625 176.316406 C 214.84375 176.15625 214.066406 175.925781 213.316406 175.617188 C 212.5625 175.308594 211.851562 174.929688 211.171875 174.484375 C 210.496094 174.035156 209.871094 173.527344 209.296875 172.957031 C 208.722656 172.386719 208.207031 171.769531 207.753906 171.097656 C 207.304688 170.429688 206.921875 169.722656 206.609375 168.976562 C 206.300781 168.234375 206.0625 167.464844 205.90625 166.675781 C 205.746094 165.886719 205.667969 165.089844 205.667969 164.28125 C 205.667969 163.476562 205.746094 162.679688 205.90625 161.890625 C 206.0625 161.097656 206.300781 160.332031 206.609375 159.585938 C 206.921875 158.84375 207.304688 158.136719 207.753906 157.46875 C 208.207031 156.796875 208.722656 156.175781 209.296875 155.609375 C 209.871094 155.039062 210.496094 154.53125 211.171875 154.082031 C 211.851562 153.632812 212.5625 153.257812 213.316406 152.949219 C 214.066406 152.640625 214.84375 152.40625 215.640625 152.25 C 216.4375 152.09375 217.242188 152.015625 218.058594 152.015625 C 218.871094 152.015625 219.675781 152.09375 220.472656 152.25 C 221.273438 152.40625 222.046875 152.640625 222.796875 152.949219 C 223.550781 153.257812 224.261719 153.632812 224.941406 154.082031 C 225.617188 154.53125 226.242188 155.039062 226.816406 155.609375 C 227.390625 156.175781 227.90625 156.796875 228.359375 157.46875 C 228.808594 158.136719 229.191406 158.84375 229.503906 159.585938 C 229.8125 160.332031 230.050781 161.097656 230.207031 161.890625 C 230.367188 162.679688 230.445312 163.476562 230.445312 164.28125 Z M 230.445312 164.28125 " fill-opacity="0.7765" fill-rule="nonzero"/><path fill="#ec008b" d="M 224.902344 145.714844 C 230.839844 146.925781 235.8125 149.871094 238.746094 154.105469 C 238.695312 154.464844 238.621094 154.820312 238.527344 155.171875 C 238.433594 155.519531 238.316406 155.863281 238.179688 156.199219 C 238.039062 156.535156 237.882812 156.863281 237.703125 157.179688 C 237.523438 157.496094 237.328125 157.800781 237.109375 158.089844 C 236.894531 158.382812 236.660156 158.660156 236.40625 158.925781 C 236.15625 159.1875 235.890625 159.433594 235.605469 159.664062 C 235.324219 159.894531 235.027344 160.109375 234.71875 160.300781 C 234.410156 160.496094 234.089844 160.671875 233.757812 160.828125 C 233.429688 160.980469 233.089844 161.117188 232.742188 161.230469 C 232.394531 161.34375 232.039062 161.433594 231.679688 161.503906 C 231.320312 161.574219 230.960938 161.621094 230.59375 161.644531 C 230.230469 161.671875 229.863281 161.675781 229.496094 161.65625 C 229.132812 161.636719 228.769531 161.59375 228.410156 161.53125 C 228.046875 161.464844 227.695312 161.378906 227.34375 161.273438 C 226.996094 161.164062 226.652344 161.035156 226.320312 160.886719 C 225.984375 160.734375 225.664062 160.566406 225.351562 160.378906 C 225.039062 160.1875 224.738281 159.980469 224.453125 159.753906 C 224.167969 159.527344 223.894531 159.285156 223.640625 159.027344 C 223.382812 158.765625 223.144531 158.492188 222.925781 158.203125 C 222.703125 157.914062 222.5 157.613281 222.316406 157.300781 C 222.132812 156.988281 221.96875 156.664062 221.824219 156.332031 C 221.683594 155.996094 221.5625 155.65625 221.460938 155.308594 C 221.359375 154.957031 221.28125 154.605469 221.226562 154.246094 C 221.167969 153.886719 221.136719 153.527344 221.125 153.164062 C 221.113281 152.804688 221.125 152.441406 221.160156 152.082031 C 221.191406 151.71875 221.25 151.363281 221.328125 151.007812 C 221.40625 150.65625 221.507812 150.304688 221.628906 149.964844 C 221.753906 149.625 221.894531 149.289062 222.058594 148.964844 C 222.226562 148.640625 222.410156 148.328125 222.613281 148.027344 C 222.816406 147.726562 223.035156 147.4375 223.277344 147.164062 C 223.515625 146.890625 223.769531 146.632812 224.042969 146.390625 C 224.316406 146.144531 224.601562 145.921875 224.902344 145.714844 Z M 224.902344 145.714844 " fill-opacity="0.7765" fill-rule="evenodd"/><path fill="#56ba48" d="M 213.886719 158.90625 C 214.371094 158.90625 214.855469 158.859375 215.332031 158.765625 C 215.8125 158.671875 216.273438 158.53125 216.726562 158.347656 C 217.175781 158.164062 217.601562 157.9375 218.007812 157.667969 C 218.414062 157.402344 218.789062 157.097656 219.132812 156.753906 C 219.476562 156.414062 219.785156 156.042969 220.054688 155.640625 C 220.328125 155.242188 220.554688 154.816406 220.742188 154.371094 C 220.929688 153.925781 221.070312 153.46875 221.164062 152.992188 C 221.261719 152.519531 221.308594 152.042969 221.308594 151.558594 C 221.308594 151.078125 221.261719 150.601562 221.164062 150.125 C 221.070312 149.652344 220.929688 149.195312 220.742188 148.75 C 220.558594 148.300781 220.328125 147.878906 220.058594 147.476562 C 219.789062 147.078125 219.480469 146.707031 219.136719 146.363281 C 218.789062 146.023438 218.414062 145.71875 218.011719 145.449219 C 217.605469 145.183594 217.179688 144.957031 216.726562 144.769531 C 216.277344 144.585938 215.8125 144.445312 215.335938 144.351562 C 214.859375 144.257812 214.375 144.210938 213.886719 144.210938 C 213.402344 144.210938 212.917969 144.257812 212.441406 144.351562 C 211.964844 144.445312 211.5 144.585938 211.050781 144.769531 C 210.597656 144.953125 210.171875 145.179688 209.765625 145.449219 C 209.359375 145.71875 208.984375 146.023438 208.640625 146.363281 C 208.296875 146.703125 207.988281 147.074219 207.71875 147.476562 C 207.449219 147.878906 207.21875 148.300781 207.03125 148.746094 C 206.847656 149.191406 206.707031 149.652344 206.609375 150.125 C 206.515625 150.597656 206.46875 151.078125 206.46875 151.558594 C 206.46875 152.039062 206.515625 152.519531 206.613281 152.992188 C 206.707031 153.464844 206.847656 153.921875 207.035156 154.367188 C 207.222656 154.8125 207.453125 155.234375 207.722656 155.636719 C 207.992188 156.039062 208.300781 156.410156 208.644531 156.75 C 208.988281 157.089844 209.363281 157.394531 209.765625 157.664062 C 210.171875 157.929688 210.597656 158.15625 211.050781 158.34375 C 211.5 158.527344 211.960938 158.667969 212.4375 158.761719 C 212.917969 158.855469 213.398438 158.90625 213.886719 158.90625 Z M 213.886719 158.90625 " fill-opacity="0.7765" fill-rule="evenodd"/><g fill="#000000" fill-opacity="1"><g transform="translate(76.856838, 175.652816)"><g><path d="M 1.5625 -14.171875 C 1.71875 -14.203125 1.941406 -14.21875 2.234375 -14.21875 C 2.523438 -14.21875 2.738281 -14.195312 2.875 -14.15625 C 3.007812 -14.125 3.097656 -14.054688 3.140625 -13.953125 C 3.191406 -13.859375 3.21875 -13.703125 3.21875 -13.484375 L 3.21875 0.015625 C 3.0625 0.0546875 2.835938 0.078125 2.546875 0.078125 C 2.253906 0.078125 2.039062 0.0546875 1.90625 0.015625 C 1.769531 -0.0234375 1.675781 -0.09375 1.625 -0.1875 C 1.582031 -0.28125 1.5625 -0.441406 1.5625 -0.671875 Z M 1.5625 -14.171875 "/></g></g></g><g fill="#000000" fill-opacity="1"><g transform="translate(82.634302, 175.652816)"><g><path d="M 12.21875 -1.359375 C 12.300781 -1.179688 12.34375 -0.984375 12.34375 -0.765625 C 12.34375 -0.453125 12.25 -0.222656 12.0625 -0.078125 C 11.84375 0.0859375 11.472656 0.171875 10.953125 0.171875 C 10.296875 0.171875 9.804688 0 9.484375 -0.34375 C 9.160156 -0.695312 9 -1.296875 9 -2.140625 L 9 -6.09375 C 9 -7.125 8.773438 -7.851562 8.328125 -8.28125 C 7.878906 -8.71875 7.265625 -8.9375 6.484375 -8.9375 C 5.929688 -8.9375 5.390625 -8.804688 4.859375 -8.546875 C 4.328125 -8.296875 3.890625 -7.988281 3.546875 -7.625 L 3.546875 0.046875 C 3.410156 0.0664062 3.203125 0.078125 2.921875 0.078125 C 2.660156 0.078125 2.457031 0.0507812 2.3125 0 C 2.164062 -0.0507812 2.0625 -0.140625 2 -0.265625 C 1.945312 -0.390625 1.921875 -0.566406 1.921875 -0.796875 L 1.921875 -7.84375 C 1.921875 -8.21875 1.851562 -8.484375 1.71875 -8.640625 C 1.59375 -8.796875 1.382812 -8.875 1.09375 -8.875 C 0.78125 -8.875 0.519531 -8.820312 0.3125 -8.71875 C 0.238281 -8.90625 0.203125 -9.101562 0.203125 -9.3125 C 0.203125 -9.644531 0.347656 -9.882812 0.640625 -10.03125 C 0.890625 -10.144531 1.207031 -10.203125 1.59375 -10.203125 C 2.082031 -10.203125 2.476562 -10.101562 2.78125 -9.90625 C 3.09375 -9.71875 3.304688 -9.394531 3.421875 -8.9375 C 3.796875 -9.34375 4.285156 -9.679688 4.890625 -9.953125 C 5.492188 -10.222656 6.148438 -10.359375 6.859375 -10.359375 C 8.078125 -10.359375 9.007812 -10.007812 9.65625 -9.3125 C 10.300781 -8.625 10.625 -7.566406 10.625 -6.140625 L 10.625 -2.1875 C 10.625 -1.800781 10.675781 -1.53125 10.78125 -1.375 C 10.882812 -1.226562 11.078125 -1.15625 11.359375 -1.15625 C 11.710938 -1.15625 12 -1.222656 12.21875 -1.359375 Z M 12.21875 -1.359375 "/></g></g></g><g fill="#000000" fill-opacity="1"><g transform="translate(96.068355, 175.652816)"><g><path d="M 7.546875 -2.078125 C 7.765625 -1.890625 7.925781 -1.71875 8.03125 -1.5625 C 8.144531 -1.40625 8.203125 -1.265625 8.203125 -1.140625 C 8.203125 -1.035156 8.175781 -0.9375 8.125 -0.84375 C 8.070312 -0.75 7.992188 -0.648438 7.890625 -0.546875 C 7.660156 -0.316406 7.3125 -0.117188 6.84375 0.046875 C 6.375 0.222656 5.859375 0.3125 5.296875 0.3125 C 4.234375 0.3125 3.460938 0.0234375 2.984375 -0.546875 C 2.503906 -1.117188 2.265625 -1.957031 2.265625 -3.0625 L 2.265625 -8.71875 L 0.234375 -8.71875 C 0.222656 -8.78125 0.210938 -8.863281 0.203125 -8.96875 C 0.203125 -9.070312 0.203125 -9.164062 0.203125 -9.25 C 0.203125 -9.5625 0.25 -9.769531 0.34375 -9.875 C 0.4375 -9.988281 0.632812 -10.046875 0.9375 -10.046875 L 2.265625 -10.046875 L 2.265625 -12.09375 C 2.265625 -12.445312 2.335938 -12.6875 2.484375 -12.8125 C 2.628906 -12.945312 2.878906 -13.015625 3.234375 -13.015625 C 3.328125 -13.015625 3.429688 -13.007812 3.546875 -13 C 3.660156 -12.988281 3.757812 -12.976562 3.84375 -12.96875 L 3.84375 -10.046875 L 7.84375 -10.046875 C 7.851562 -9.992188 7.863281 -9.914062 7.875 -9.8125 C 7.882812 -9.707031 7.890625 -9.609375 7.890625 -9.515625 C 7.890625 -9.203125 7.84375 -8.988281 7.75 -8.875 C 7.65625 -8.769531 7.460938 -8.71875 7.171875 -8.71875 L 3.84375 -8.71875 L 3.84375 -3.15625 C 3.84375 -2.445312 3.972656 -1.925781 4.234375 -1.59375 C 4.503906 -1.269531 4.898438 -1.109375 5.421875 -1.109375 C 5.835938 -1.109375 6.210938 -1.191406 6.546875 -1.359375 C 6.878906 -1.523438 7.210938 -1.765625 7.546875 -2.078125 Z M 7.546875 -2.078125 "/></g></g></g><g fill="#000000" fill-opacity="1"><g transform="translate(106.055962, 175.652816)"><g><path d="M 9.25 -2.296875 C 9.5625 -2.003906 9.71875 -1.703125 9.71875 -1.390625 C 9.71875 -1.117188 9.609375 -0.890625 9.390625 -0.703125 C 9.085938 -0.429688 8.628906 -0.195312 8.015625 0 C 7.410156 0.207031 6.722656 0.3125 5.953125 0.3125 C 4.929688 0.3125 4.046875 0.109375 3.296875 -0.296875 C 2.554688 -0.710938 1.984375 -1.316406 1.578125 -2.109375 C 1.179688 -2.910156 0.984375 -3.867188 0.984375 -4.984375 C 0.984375 -6.117188 1.207031 -7.09375 1.65625 -7.90625 C 2.113281 -8.71875 2.722656 -9.328125 3.484375 -9.734375 C 4.242188 -10.148438 5.082031 -10.359375 6 -10.359375 C 6.800781 -10.359375 7.503906 -10.222656 8.109375 -9.953125 C 8.722656 -9.691406 9.191406 -9.320312 9.515625 -8.84375 C 9.847656 -8.363281 10.015625 -7.8125 10.015625 -7.1875 C 10.015625 -6.1875 9.625 -5.4375 8.84375 -4.9375 C 8.070312 -4.4375 6.929688 -4.1875 5.421875 -4.1875 C 4.421875 -4.1875 3.460938 -4.289062 2.546875 -4.5 C 2.648438 -3.34375 3.007812 -2.488281 3.625 -1.9375 C 4.25 -1.382812 5.050781 -1.109375 6.03125 -1.109375 C 6.695312 -1.109375 7.300781 -1.222656 7.84375 -1.453125 C 8.382812 -1.679688 8.851562 -1.960938 9.25 -2.296875 Z M 5.96875 -9 C 5.4375 -9 4.925781 -8.882812 4.4375 -8.65625 C 3.945312 -8.425781 3.53125 -8.066406 3.1875 -7.578125 C 2.851562 -7.097656 2.644531 -6.484375 2.5625 -5.734375 C 3.457031 -5.566406 4.421875 -5.484375 5.453125 -5.484375 C 6.441406 -5.484375 7.1875 -5.609375 7.6875 -5.859375 C 8.1875 -6.109375 8.4375 -6.566406 8.4375 -7.234375 C 8.4375 -7.566406 8.328125 -7.867188 8.109375 -8.140625 C 7.898438 -8.410156 7.601562 -8.617188 7.21875 -8.765625 C 6.84375 -8.921875 6.425781 -9 5.96875 -9 Z M 5.96875 -9 "/></g></g></g><g fill="#000000" fill-opacity="1"><g transform="translate(118.236761, 175.652816)"><g><path d="M 7.5625 -9.921875 C 7.757812 -9.753906 7.859375 -9.539062 7.859375 -9.28125 C 7.859375 -9 7.773438 -8.691406 7.609375 -8.359375 C 7.179688 -8.628906 6.675781 -8.765625 6.09375 -8.765625 C 5.59375 -8.765625 5.117188 -8.628906 4.671875 -8.359375 C 4.222656 -8.097656 3.847656 -7.75 3.546875 -7.3125 L 3.546875 0.046875 C 3.410156 0.0664062 3.203125 0.078125 2.921875 0.078125 C 2.660156 0.078125 2.457031 0.0507812 2.3125 0 C 2.164062 -0.0507812 2.0625 -0.140625 2 -0.265625 C 1.945312 -0.390625 1.921875 -0.566406 1.921875 -0.796875 L 1.921875 -7.84375 C 1.921875 -8.21875 1.851562 -8.484375 1.71875 -8.640625 C 1.59375 -8.796875 1.382812 -8.875 1.09375 -8.875 C 0.78125 -8.875 0.519531 -8.820312 0.3125 -8.71875 C 0.238281 -8.90625 0.203125 -9.101562 0.203125 -9.3125 C 0.203125 -9.644531 0.347656 -9.882812 0.640625 -10.03125 C 0.890625 -10.144531 1.207031 -10.203125 1.59375 -10.203125 C 2.125 -10.203125 2.539062 -10.09375 2.84375 -9.875 C 3.15625 -9.65625 3.363281 -9.289062 3.46875 -8.78125 C 3.769531 -9.238281 4.171875 -9.59375 4.671875 -9.84375 C 5.171875 -10.101562 5.703125 -10.234375 6.265625 -10.234375 C 6.867188 -10.234375 7.300781 -10.128906 7.5625 -9.921875 Z M 7.5625 -9.921875 "/></g></g></g><g fill="#000000" fill-opacity="1"><g transform="translate(127.67607, 175.652816)"><g><path d="M 10.046875 -9.4375 C 10.171875 -9.125 10.28125 -8.664062 10.375 -8.0625 C 10.46875 -7.457031 10.515625 -6.742188 10.515625 -5.921875 C 10.515625 -3.910156 10.097656 -2.367188 9.265625 -1.296875 C 8.429688 -0.222656 7.132812 0.3125 5.375 0.3125 C 4.875 0.3125 4.378906 0.25 3.890625 0.125 C 3.398438 0.0078125 2.992188 -0.128906 2.671875 -0.296875 C 2.453125 -0.398438 2.289062 -0.503906 2.1875 -0.609375 C 2.082031 -0.710938 2.007812 -0.832031 1.96875 -0.96875 C 1.9375 -1.101562 1.921875 -1.289062 1.921875 -1.53125 L 1.921875 -7.84375 C 1.921875 -8.21875 1.851562 -8.484375 1.71875 -8.640625 C 1.59375 -8.796875 1.382812 -8.875 1.09375 -8.875 C 0.78125 -8.875 0.519531 -8.820312 0.3125 -8.71875 C 0.238281 -8.90625 0.203125 -9.101562 0.203125 -9.3125 C 0.203125 -9.644531 0.347656 -9.882812 0.640625 -10.03125 C 0.890625 -10.144531 1.207031 -10.203125 1.59375 -10.203125 C 2.238281 -10.203125 2.722656 -10.023438 3.046875 -9.671875 C 3.378906 -9.328125 3.546875 -8.734375 3.546875 -7.890625 L 3.546875 -1.5625 C 3.804688 -1.425781 4.09375 -1.316406 4.40625 -1.234375 C 4.71875 -1.148438 5.039062 -1.109375 5.375 -1.109375 C 6.519531 -1.109375 7.390625 -1.507812 7.984375 -2.3125 C 8.585938 -3.125 8.890625 -4.304688 8.890625 -5.859375 C 8.890625 -6.773438 8.832031 -7.566406 8.71875 -8.234375 C 8.601562 -8.910156 8.453125 -9.515625 8.265625 -10.046875 C 8.347656 -10.066406 8.441406 -10.082031 8.546875 -10.09375 C 8.660156 -10.101562 8.769531 -10.109375 8.875 -10.109375 C 9.195312 -10.109375 9.453125 -10.054688 9.640625 -9.953125 C 9.828125 -9.859375 9.960938 -9.6875 10.046875 -9.4375 Z M 10.046875 -9.4375 "/></g></g></g><g fill="#000000" fill-opacity="1"><g transform="translate(140.170185, 175.652816)"><g><path d="M 2.1875 -12.34375 C 1.820312 -12.34375 1.535156 -12.4375 1.328125 -12.625 C 1.128906 -12.8125 1.03125 -13.078125 1.03125 -13.421875 C 1.03125 -13.742188 1.128906 -14 1.328125 -14.1875 C 1.535156 -14.382812 1.820312 -14.484375 2.1875 -14.484375 C 2.5625 -14.484375 2.847656 -14.382812 3.046875 -14.1875 C 3.242188 -14 3.34375 -13.742188 3.34375 -13.421875 C 3.34375 -13.078125 3.242188 -12.8125 3.046875 -12.625 C 2.847656 -12.4375 2.5625 -12.34375 2.1875 -12.34375 Z M 3.328125 0.171875 C 2.671875 0.171875 2.179688 0 1.859375 -0.34375 C 1.535156 -0.695312 1.375 -1.296875 1.375 -2.140625 L 1.375 -10.109375 C 1.445312 -10.117188 1.546875 -10.128906 1.671875 -10.140625 C 1.796875 -10.160156 1.90625 -10.171875 2 -10.171875 C 2.375 -10.171875 2.632812 -10.109375 2.78125 -9.984375 C 2.925781 -9.867188 3 -9.632812 3 -9.28125 L 3 -2.1875 C 3 -1.800781 3.050781 -1.53125 3.15625 -1.375 C 3.257812 -1.226562 3.457031 -1.15625 3.75 -1.15625 C 4.09375 -1.15625 4.378906 -1.222656 4.609375 -1.359375 C 4.679688 -1.179688 4.71875 -0.984375 4.71875 -0.765625 C 4.71875 -0.453125 4.628906 -0.222656 4.453125 -0.078125 C 4.222656 0.0859375 3.847656 0.171875 3.328125 0.171875 Z M 3.328125 0.171875 "/></g></g></g><g fill="#000000" fill-opacity="1"><g transform="translate(146.084715, 175.652816)"><g><path d="M 9.25 -2.296875 C 9.5625 -2.003906 9.71875 -1.703125 9.71875 -1.390625 C 9.71875 -1.117188 9.609375 -0.890625 9.390625 -0.703125 C 9.085938 -0.429688 8.628906 -0.195312 8.015625 0 C 7.410156 0.207031 6.722656 0.3125 5.953125 0.3125 C 4.929688 0.3125 4.046875 0.109375 3.296875 -0.296875 C 2.554688 -0.710938 1.984375 -1.316406 1.578125 -2.109375 C 1.179688 -2.910156 0.984375 -3.867188 0.984375 -4.984375 C 0.984375 -6.117188 1.207031 -7.09375 1.65625 -7.90625 C 2.113281 -8.71875 2.722656 -9.328125 3.484375 -9.734375 C 4.242188 -10.148438 5.082031 -10.359375 6 -10.359375 C 6.800781 -10.359375 7.503906 -10.222656 8.109375 -9.953125 C 8.722656 -9.691406 9.191406 -9.320312 9.515625 -8.84375 C 9.847656 -8.363281 10.015625 -7.8125 10.015625 -7.1875 C 10.015625 -6.1875 9.625 -5.4375 8.84375 -4.9375 C 8.070312 -4.4375 6.929688 -4.1875 5.421875 -4.1875 C 4.421875 -4.1875 3.460938 -4.289062 2.546875 -4.5 C 2.648438 -3.34375 3.007812 -2.488281 3.625 -1.9375 C 4.25 -1.382812 5.050781 -1.109375 6.03125 -1.109375 C 6.695312 -1.109375 7.300781 -1.222656 7.84375 -1.453125 C 8.382812 -1.679688 8.851562 -1.960938 9.25 -2.296875 Z M 5.96875 -9 C 5.4375 -9 4.925781 -8.882812 4.4375 -8.65625 C 3.945312 -8.425781 3.53125 -8.066406 3.1875 -7.578125 C 2.851562 -7.097656 2.644531 -6.484375 2.5625 -5.734375 C 3.457031 -5.566406 4.421875 -5.484375 5.453125 -5.484375 C 6.441406 -5.484375 7.1875 -5.609375 7.6875 -5.859375 C 8.1875 -6.109375 8.4375 -6.566406 8.4375 -7.234375 C 8.4375 -7.566406 8.328125 -7.867188 8.109375 -8.140625 C 7.898438 -8.410156 7.601562 -8.617188 7.21875 -8.765625 C 6.84375 -8.921875 6.425781 -9 5.96875 -9 Z M 5.96875 -9 "/></g></g></g><g fill="#000000" fill-opacity="1"><g transform="translate(158.265513, 175.652816)"><g><path d="M 15.515625 -9.4375 C 15.628906 -9.125 15.734375 -8.664062 15.828125 -8.0625 C 15.929688 -7.457031 15.984375 -6.742188 15.984375 -5.921875 C 15.984375 -3.972656 15.578125 -2.445312 14.765625 -1.34375 C 13.953125 -0.238281 12.707031 0.3125 11.03125 0.3125 C 10.5 0.3125 9.96875 0.226562 9.4375 0.0625 C 8.914062 -0.09375 8.460938 -0.316406 8.078125 -0.609375 C 7.273438 0.00390625 6.253906 0.3125 5.015625 0.3125 C 4.617188 0.3125 4.191406 0.25 3.734375 0.125 C 3.285156 0 2.929688 -0.140625 2.671875 -0.296875 C 2.453125 -0.410156 2.289062 -0.519531 2.1875 -0.625 C 2.082031 -0.726562 2.007812 -0.84375 1.96875 -0.96875 C 1.9375 -1.101562 1.921875 -1.289062 1.921875 -1.53125 L 1.921875 -7.84375 C 1.921875 -8.21875 1.851562 -8.484375 1.71875 -8.640625 C 1.59375 -8.796875 1.382812 -8.875 1.09375 -8.875 C 0.78125 -8.875 0.519531 -8.820312 0.3125 -8.71875 C 0.238281 -8.90625 0.203125 -9.101562 0.203125 -9.3125 C 0.203125 -9.644531 0.347656 -9.882812 0.640625 -10.03125 C 0.890625 -10.144531 1.207031 -10.203125 1.59375 -10.203125 C 2.238281 -10.203125 2.722656 -10.023438 3.046875 -9.671875 C 3.378906 -9.328125 3.546875 -8.734375 3.546875 -7.890625 L 3.546875 -1.515625 C 4.023438 -1.242188 4.535156 -1.109375 5.078125 -1.109375 C 7.253906 -1.109375 8.34375 -2.691406 8.34375 -5.859375 C 8.34375 -6.773438 8.285156 -7.5625 8.171875 -8.21875 C 8.054688 -8.875 7.90625 -9.476562 7.71875 -10.03125 C 7.875 -10.082031 8.078125 -10.109375 8.328125 -10.109375 C 8.648438 -10.109375 8.90625 -10.054688 9.09375 -9.953125 C 9.289062 -9.859375 9.429688 -9.6875 9.515625 -9.4375 C 9.640625 -9.144531 9.742188 -8.691406 9.828125 -8.078125 C 9.921875 -7.472656 9.96875 -6.753906 9.96875 -5.921875 C 9.96875 -4.117188 9.648438 -2.691406 9.015625 -1.640625 C 9.316406 -1.460938 9.632812 -1.328125 9.96875 -1.234375 C 10.300781 -1.148438 10.6875 -1.109375 11.125 -1.109375 C 11.789062 -1.109375 12.363281 -1.285156 12.84375 -1.640625 C 13.332031 -2.003906 13.707031 -2.539062 13.96875 -3.25 C 14.226562 -3.957031 14.359375 -4.828125 14.359375 -5.859375 C 14.359375 -6.773438 14.300781 -7.566406 14.1875 -8.234375 C 14.070312 -8.910156 13.921875 -9.515625 13.734375 -10.046875 C 13.890625 -10.085938 14.09375 -10.109375 14.34375 -10.109375 C 14.664062 -10.109375 14.914062 -10.054688 15.09375 -9.953125 C 15.28125 -9.859375 15.421875 -9.6875 15.515625 -9.4375 Z M 15.515625 -9.4375 "/></g></g></g><g fill="#000000" fill-opacity="1"><g transform="translate(99.649805, 202.652814)"><g><path d="M 12.28125 -14.21875 C 12.570312 -14.21875 12.785156 -14.195312 12.921875 -14.15625 C 13.054688 -14.125 13.144531 -14.054688 13.1875 -13.953125 C 13.238281 -13.859375 13.265625 -13.703125 13.265625 -13.484375 L 13.265625 -1.390625 C 13.265625 -0.890625 13.132812 -0.515625 12.875 -0.265625 C 12.625 -0.0234375 12.296875 0.09375 11.890625 0.09375 C 11.617188 0.09375 11.375 0.0664062 11.15625 0.015625 C 9.800781 -2.109375 8.410156 -4.210938 6.984375 -6.296875 C 5.566406 -8.378906 4.3125 -10.117188 3.21875 -11.515625 L 3.21875 0.015625 C 3.0625 0.0546875 2.835938 0.078125 2.546875 0.078125 C 2.253906 0.078125 2.039062 0.0546875 1.90625 0.015625 C 1.769531 -0.0234375 1.675781 -0.09375 1.625 -0.1875 C 1.582031 -0.28125 1.5625 -0.441406 1.5625 -0.671875 L 1.5625 -13.203125 L 0.90625 -14.21875 C 1.03125 -14.257812 1.1875 -14.296875 1.375 -14.328125 C 1.570312 -14.359375 1.765625 -14.375 1.953125 -14.375 C 2.242188 -14.375 2.460938 -14.359375 2.609375 -14.328125 C 2.765625 -14.296875 2.90625 -14.222656 3.03125 -14.109375 C 3.164062 -14.003906 3.335938 -13.828125 3.546875 -13.578125 C 4.617188 -12.296875 5.890625 -10.597656 7.359375 -8.484375 C 8.835938 -6.378906 10.257812 -4.269531 11.625 -2.15625 L 11.625 -14.171875 C 11.78125 -14.203125 12 -14.21875 12.28125 -14.21875 Z M 12.28125 -14.21875 "/></g></g></g><g fill="#000000" fill-opacity="1"><g transform="translate(115.472881, 202.652814)"><g><path d="M 2.1875 -12.34375 C 1.820312 -12.34375 1.535156 -12.4375 1.328125 -12.625 C 1.128906 -12.8125 1.03125 -13.078125 1.03125 -13.421875 C 1.03125 -13.742188 1.128906 -14 1.328125 -14.1875 C 1.535156 -14.382812 1.820312 -14.484375 2.1875 -14.484375 C 2.5625 -14.484375 2.847656 -14.382812 3.046875 -14.1875 C 3.242188 -14 3.34375 -13.742188 3.34375 -13.421875 C 3.34375 -13.078125 3.242188 -12.8125 3.046875 -12.625 C 2.847656 -12.4375 2.5625 -12.34375 2.1875 -12.34375 Z M 3.328125 0.171875 C 2.671875 0.171875 2.179688 0 1.859375 -0.34375 C 1.535156 -0.695312 1.375 -1.296875 1.375 -2.140625 L 1.375 -10.109375 C 1.445312 -10.117188 1.546875 -10.128906 1.671875 -10.140625 C 1.796875 -10.160156 1.90625 -10.171875 2 -10.171875 C 2.375 -10.171875 2.632812 -10.109375 2.78125 -9.984375 C 2.925781 -9.867188 3 -9.632812 3 -9.28125 L 3 -2.1875 C 3 -1.800781 3.050781 -1.53125 3.15625 -1.375 C 3.257812 -1.226562 3.457031 -1.15625 3.75 -1.15625 C 4.09375 -1.15625 4.378906 -1.222656 4.609375 -1.359375 C 4.679688 -1.179688 4.71875 -0.984375 4.71875 -0.765625 C 4.71875 -0.453125 4.628906 -0.222656 4.453125 -0.078125 C 4.222656 0.0859375 3.847656 0.171875 3.328125 0.171875 Z M 3.328125 0.171875 "/></g></g></g><g fill="#000000" fill-opacity="1"><g transform="translate(121.38741, 202.652814)"><g><path d="M 12.21875 -1.359375 C 12.300781 -1.179688 12.34375 -0.984375 12.34375 -0.765625 C 12.34375 -0.453125 12.25 -0.222656 12.0625 -0.078125 C 11.84375 0.0859375 11.472656 0.171875 10.953125 0.171875 C 10.296875 0.171875 9.804688 0 9.484375 -0.34375 C 9.160156 -0.695312 9 -1.296875 9 -2.140625 L 9 -6.09375 C 9 -7.125 8.773438 -7.851562 8.328125 -8.28125 C 7.878906 -8.71875 7.265625 -8.9375 6.484375 -8.9375 C 5.929688 -8.9375 5.390625 -8.804688 4.859375 -8.546875 C 4.328125 -8.296875 3.890625 -7.988281 3.546875 -7.625 L 3.546875 0.046875 C 3.410156 0.0664062 3.203125 0.078125 2.921875 0.078125 C 2.660156 0.078125 2.457031 0.0507812 2.3125 0 C 2.164062 -0.0507812 2.0625 -0.140625 2 -0.265625 C 1.945312 -0.390625 1.921875 -0.566406 1.921875 -0.796875 L 1.921875 -7.84375 C 1.921875 -8.21875 1.851562 -8.484375 1.71875 -8.640625 C 1.59375 -8.796875 1.382812 -8.875 1.09375 -8.875 C 0.78125 -8.875 0.519531 -8.820312 0.3125 -8.71875 C 0.238281 -8.90625 0.203125 -9.101562 0.203125 -9.3125 C 0.203125 -9.644531 0.347656 -9.882812 0.640625 -10.03125 C 0.890625 -10.144531 1.207031 -10.203125 1.59375 -10.203125 C 2.082031 -10.203125 2.476562 -10.101562 2.78125 -9.90625 C 3.09375 -9.71875 3.304688 -9.394531 3.421875 -8.9375 C 3.796875 -9.34375 4.285156 -9.679688 4.890625 -9.953125 C 5.492188 -10.222656 6.148438 -10.359375 6.859375 -10.359375 C 8.078125 -10.359375 9.007812 -10.007812 9.65625 -9.3125 C 10.300781 -8.625 10.625 -7.566406 10.625 -6.140625 L 10.625 -2.1875 C 10.625 -1.800781 10.675781 -1.53125 10.78125 -1.375 C 10.882812 -1.226562 11.078125 -1.15625 11.359375 -1.15625 C 11.710938 -1.15625 12 -1.222656 12.21875 -1.359375 Z M 12.21875 -1.359375 "/></g></g></g><g fill="#000000" fill-opacity="1"><g transform="translate(134.821462, 202.652814)"><g><path d="M 2.15625 -12.34375 C 1.789062 -12.34375 1.503906 -12.4375 1.296875 -12.625 C 1.097656 -12.8125 1 -13.078125 1 -13.421875 C 1 -13.742188 1.097656 -14 1.296875 -14.1875 C 1.503906 -14.382812 1.789062 -14.484375 2.15625 -14.484375 C 2.519531 -14.484375 2.800781 -14.382812 3 -14.1875 C 3.207031 -14 3.3125 -13.742188 3.3125 -13.421875 C 3.3125 -13.078125 3.207031 -12.8125 3 -12.625 C 2.800781 -12.4375 2.519531 -12.34375 2.15625 -12.34375 Z M 0.234375 3.71875 C -0.0234375 3.71875 -0.234375 3.695312 -0.390625 3.65625 C -0.765625 3.582031 -0.953125 3.335938 -0.953125 2.921875 C -0.953125 2.773438 -0.910156 2.53125 -0.828125 2.1875 C -0.734375 2.226562 -0.609375 2.257812 -0.453125 2.28125 C -0.304688 2.3125 -0.160156 2.328125 -0.015625 2.328125 C 0.421875 2.328125 0.757812 2.179688 1 1.890625 C 1.25 1.609375 1.375 1.128906 1.375 0.453125 L 1.375 -10.109375 C 1.445312 -10.117188 1.546875 -10.128906 1.671875 -10.140625 C 1.796875 -10.160156 1.90625 -10.171875 2 -10.171875 C 2.257812 -10.171875 2.460938 -10.144531 2.609375 -10.09375 C 2.753906 -10.039062 2.851562 -9.953125 2.90625 -9.828125 C 2.96875 -9.703125 3 -9.519531 3 -9.28125 L 3 0.328125 C 3 1.503906 2.753906 2.363281 2.265625 2.90625 C 1.773438 3.445312 1.097656 3.71875 0.234375 3.71875 Z M 0.234375 3.71875 "/></g></g></g><g fill="#000000" fill-opacity="1"><g transform="translate(140.187694, 202.652814)"><g><path d="M 11.953125 -1.359375 C 12.023438 -1.179688 12.0625 -0.984375 12.0625 -0.765625 C 12.0625 -0.453125 11.972656 -0.222656 11.796875 -0.078125 C 11.578125 0.0859375 11.203125 0.171875 10.671875 0.171875 C 10.179688 0.171875 9.785156 0.0820312 9.484375 -0.09375 C 9.179688 -0.28125 8.972656 -0.585938 8.859375 -1.015625 C 8.460938 -0.585938 7.988281 -0.257812 7.4375 -0.03125 C 6.894531 0.195312 6.296875 0.3125 5.640625 0.3125 C 4.742188 0.3125 3.941406 0.101562 3.234375 -0.3125 C 2.523438 -0.738281 1.972656 -1.347656 1.578125 -2.140625 C 1.179688 -2.941406 0.984375 -3.894531 0.984375 -5 C 0.984375 -6.082031 1.179688 -7.023438 1.578125 -7.828125 C 1.984375 -8.640625 2.550781 -9.265625 3.28125 -9.703125 C 4.007812 -10.140625 4.828125 -10.359375 5.734375 -10.359375 C 6.296875 -10.359375 6.832031 -10.253906 7.34375 -10.046875 C 7.863281 -9.835938 8.320312 -9.546875 8.71875 -9.171875 L 8.71875 -9.28125 C 8.71875 -9.632812 8.789062 -9.867188 8.9375 -9.984375 C 9.082031 -10.109375 9.34375 -10.171875 9.71875 -10.171875 C 9.8125 -10.171875 9.921875 -10.160156 10.046875 -10.140625 C 10.171875 -10.128906 10.269531 -10.117188 10.34375 -10.109375 L 10.34375 -2.1875 C 10.34375 -1.800781 10.394531 -1.53125 10.5 -1.375 C 10.601562 -1.226562 10.800781 -1.15625 11.09375 -1.15625 C 11.445312 -1.15625 11.734375 -1.222656 11.953125 -1.359375 Z M 5.859375 -1.109375 C 6.421875 -1.109375 6.945312 -1.222656 7.4375 -1.453125 C 7.925781 -1.679688 8.351562 -1.992188 8.71875 -2.390625 L 8.71875 -7.65625 C 8.351562 -8.050781 7.921875 -8.363281 7.421875 -8.59375 C 6.929688 -8.820312 6.40625 -8.9375 5.84375 -8.9375 C 5.226562 -8.9375 4.675781 -8.773438 4.1875 -8.453125 C 3.707031 -8.128906 3.328125 -7.675781 3.046875 -7.09375 C 2.765625 -6.507812 2.625 -5.816406 2.625 -5.015625 C 2.625 -4.242188 2.765625 -3.5625 3.046875 -2.96875 C 3.335938 -2.375 3.726562 -1.914062 4.21875 -1.59375 C 4.707031 -1.269531 5.253906 -1.109375 5.859375 -1.109375 Z M 5.859375 -1.109375 "/></g></g></g></svg>